<?xml version="1.0"?>
<svg width="250mm" height="200mm" viewBox="0 0   3200    1500"
     xmlns="http://www.w3.org/2000/svg"
     xmlns:xlink="http://www.w3.org/1999/xlink"
     xmlns:ev="http://www.w3.org/2001/xml-events">
<g font-family="Verdana" font-size="8" >
  <line x1="  2400" y1="   310" x2="  2100" y2="    30" style = "stroke:silver  ;"/>
  <line x1="  2400" y1="   350" x2="  2100" y2="    70" style = "stroke:silver  ;"/>
  <line x1="  2400" y1="   390" x2="  2100" y2="   110" style = "stroke:silver  ;"/>
  <line x1="  2400" y1="   430" x2="  2100" y2="   150" style = "stroke:silver  ;"/>
  <line x1="  2400" y1="   470" x2="  2100" y2="   190" style = "stroke:silver  ;"/>
  <line x1="  2400" y1="   510" x2="   900" y2="    30" style = "stroke:silver  ;"/>
  <line x1="  2050" y1="   670" x2="   600" y2="    30" style = "stroke:silver  ;"/>
  <rect x="  2300" y="    20" width="   200" height="    20" style = "fill:chartreuse; stroke: Black;"/>     1
  <text x="  2302" y="    33">SPACE1-1</text>
  <rect x="   200" y="   780" width="   200" height="    20" style = "fill:snow; stroke: Black;"/>     6
  <text x="   202" y="   793">OutdoorAir:NodeList</text>
  <rect x="   800" y="   300" width="   200" height="    20" style = "fill:wheat; stroke: Black;"/>    14
  <text x="   802" y="   313">HEATING SUPPLY SIDE BYPASS</text>
  <rect x="  1400" y="   300" width="   200" height="    20" style = "fill:wheat; stroke: Black;"/>    15
  <text x="  1402" y="   313">HEATING SUPPLY OUTLET</text>
  <rect x="  1700" y="   300" width="   200" height="    20" style = "fill:wheat; stroke: Black;"/>    16
  <text x="  1702" y="   313">HEATING DEMAND INLET PIPE</text>
  <rect x="  2900" y="   540" width="   200" height="    20" style = "fill:wheat; stroke: Black;"/>    17
  <text x="  2902" y="   553">HEATING DEMAND OUTLET PIPE</text>
  <rect x="  2300" y="   540" width="   200" height="    20" style = "fill:wheat; stroke: Black;"/>    18
  <text x="  2302" y="   553">HEATING DEMAND BYPASS</text>
  <rect x="  1450" y="   660" width="   200" height="    20" style = "fill:wheat; stroke: Black;"/>    19
  <text x="  1452" y="   673">COOLING DEMAND SIDE INLET PIPE</text>
  <rect x="  1950" y="   700" width="   200" height="    20" style = "fill:wheat; stroke: Black;"/>    20
  <text x="  1952" y="   713">COOLING DEMAND SIDE BYPASS</text>
  <rect x="  2450" y="   700" width="   200" height="    20" style = "fill:wheat; stroke: Black;"/>    21
  <text x="  2452" y="   713">CW DEMAND SIDE OUTLET PIPE</text>
  <rect x="  1200" y="   660" width="   200" height="    20" style = "fill:wheat; stroke: Black;"/>    22
  <text x="  1202" y="   673">SUPPLY SIDE OUTLET PIPE</text>
  <rect x="   700" y="   660" width="   200" height="    20" style = "fill:wheat; stroke: Black;"/>    23
  <text x="   702" y="   673">SUPPLY SIDE BYPASS</text>
  <rect x="  2000" y="   300" width="   200" height="    20" style = "fill:wheat; stroke: Black;"/>    24
  <text x="  2002" y="   313">HEATING DEMAND SPLITTER</text>
  <rect x="  2600" y="   540" width="   200" height="    20" style = "fill:wheat; stroke: Black;"/>    25
  <text x="  2602" y="   553">HEATING DEMAND MIXER</text>
  <rect x="   500" y="   260" width="   200" height="    20" style = "fill:wheat; stroke: Black;"/>    26
  <text x="   502" y="   273">HEATING SUPPLY SPLITTER</text>
  <rect x="  1100" y="   300" width="   200" height="    20" style = "fill:wheat; stroke: Black;"/>    27
  <text x="  1102" y="   313">HEATING SUPPLY MIXER</text>
  <rect x="  1700" y="   660" width="   200" height="    20" style = "fill:wheat; stroke: Black;"/>    28
  <text x="  1702" y="   673">CW DEMAND SPLITTER</text>
  <rect x="  2200" y="   700" width="   200" height="    20" style = "fill:wheat; stroke: Black;"/>    29
  <text x="  2202" y="   713">CW DEMAND MIXER</text>
  <rect x="   450" y="   620" width="   200" height="    20" style = "fill:wheat; stroke: Black;"/>    30
  <text x="   452" y="   633">CW LOOP SPLITTER</text>
  <rect x="   950" y="   660" width="   200" height="    20" style = "fill:wheat; stroke: Black;"/>    31
  <text x="   952" y="   673">CW LOOP MIXER</text>
  <rect x="  1400" y="    20" width="   200" height="    20" style = "fill:wheat; stroke: Black;"/>    32
  <text x="  1402" y="    33">ZONE SUPPLY AIR SPLITTER 1</text>
  <rect x="  1700" y="    20" width="   200" height="    20" style = "fill:wheat; stroke: Black;"/>    33
  <text x="  1702" y="    33">SPACE1-1 VAV REHEAT</text>
  <rect x="  2300" y="   300" width="   200" height="    20" style = "fill:salmon; stroke: Black;"/>    34
  <text x="  2302" y="   313">SPACE1-1 ZONE COIL</text>
  <rect x="  2000" y="    20" width="   200" height="    20" style = "fill:salmon; stroke: Black;"/>    35
  <text x="  2002" y="    33">SPACE1-1 ZONE COIL</text>
  <rect x="  2300" y="   340" width="   200" height="    20" style = "fill:salmon; stroke: Black;"/>    36
  <text x="  2302" y="   353">SPACE2-1 ZONE COIL</text>
  <rect x="  2000" y="    60" width="   200" height="    20" style = "fill:salmon; stroke: Black;"/>    37
  <text x="  2002" y="    73">SPACE2-1 ZONE COIL</text>
  <rect x="  2300" y="   380" width="   200" height="    20" style = "fill:salmon; stroke: Black;"/>    38
  <text x="  2302" y="   393">SPACE3-1 ZONE COIL</text>
  <rect x="  2000" y="   100" width="   200" height="    20" style = "fill:salmon; stroke: Black;"/>    39
  <text x="  2002" y="   113">SPACE3-1 ZONE COIL</text>
  <rect x="  2300" y="   420" width="   200" height="    20" style = "fill:salmon; stroke: Black;"/>    40
  <text x="  2302" y="   433">SPACE4-1 ZONE COIL</text>
  <rect x="  2000" y="   140" width="   200" height="    20" style = "fill:salmon; stroke: Black;"/>    41
  <text x="  2002" y="   153">SPACE4-1 ZONE COIL</text>
  <rect x="  2300" y="   460" width="   200" height="    20" style = "fill:salmon; stroke: Black;"/>    42
  <text x="  2302" y="   473">SPACE5-1 ZONE COIL</text>
  <rect x="  2000" y="   180" width="   200" height="    20" style = "fill:salmon; stroke: Black;"/>    43
  <text x="  2002" y="   193">SPACE5-1 ZONE COIL</text>
  <rect x="  2300" y="   500" width="   200" height="    20" style = "fill:salmon; stroke: Black;"/>    44
  <text x="  2302" y="   513">MAIN HEATING COIL 1</text>
  <rect x="   800" y="    20" width="   200" height="    20" style = "fill:salmon; stroke: Black;"/>    45
  <text x="   802" y="    33">MAIN HEATING COIL 1</text>
  <rect x="  1950" y="   660" width="   200" height="    20" style = "fill:skyblue; stroke: Black;"/>    46
  <text x="  1952" y="   673">MAIN COOLING COIL 1</text>
  <rect x="   500" y="    20" width="   200" height="    20" style = "fill:skyblue; stroke: Black;"/>    47
  <text x="   502" y="    33">MAIN COOLING COIL 1</text>
  <rect x="  1700" y="    60" width="   200" height="    20" style = "fill:wheat; stroke: Black;"/>    48
  <text x="  1702" y="    73">SPACE2-1 VAV REHEAT</text>
  <rect x="  1700" y="   100" width="   200" height="    20" style = "fill:wheat; stroke: Black;"/>    49
  <text x="  1702" y="   113">SPACE3-1 VAV REHEAT</text>
  <rect x="  1700" y="   140" width="   200" height="    20" style = "fill:wheat; stroke: Black;"/>    50
  <text x="  1702" y="   153">SPACE4-1 VAV REHEAT</text>
  <rect x="  1700" y="   180" width="   200" height="    20" style = "fill:wheat; stroke: Black;"/>    51
  <text x="  1702" y="   193">SPACE5-1 VAV REHEAT</text>
  <rect x="  2600" y="   180" width="   200" height="    20" style = "fill:lightgreen; stroke: Black;"/>    54
  <text x="  2602" y="   193">RETURN-PLENUM-1</text>
  <rect x="   200" y="    20" width="   200" height="    20" style = "fill:lawngreen; stroke: Black;"/>    55
  <text x="   202" y="    33">OA MIXING BOX 1</text>
  <rect x="  1100" y="    20" width="   200" height="    20" style = "fill:silver; stroke: Black;"/>    56
  <text x="  1102" y="    33">SUPPLY FAN 1</text>
  <rect x="   800" y="   260" width="   200" height="    20" style = "fill:indianred; stroke: Black;"/>    58
  <text x="   802" y="   273">CENTRAL BOILER</text>
  <rect x="   700" y="   620" width="   200" height="    20" style = "fill:powderblue; stroke: Black;"/>    59
  <text x="   702" y="   633">CENTRAL CHILLER</text>
  <rect x="   200" y="   260" width="   200" height="    20" style = "fill:springgreen; stroke: Black;"/>    61
  <text x="   202" y="   273">HW CIRC PUMP</text>
  <rect x="   200" y="   620" width="   200" height="    20" style = "fill:springgreen; stroke: Black;"/>    62
  <text x="   202" y="   633">CW CIRC PUMP</text>
  <rect x="  2300" y="    60" width="   200" height="    20" style = "fill:chartreuse; stroke: Black;"/>    63
  <text x="  2302" y="    73">SPACE2-1</text>
  <rect x="  2300" y="   100" width="   200" height="    20" style = "fill:chartreuse; stroke: Black;"/>    64
  <text x="  2302" y="   113">SPACE3-1</text>
  <rect x="  2300" y="   140" width="   200" height="    20" style = "fill:chartreuse; stroke: Black;"/>    65
  <text x="  2302" y="   153">SPACE4-1</text>
  <rect x="  2300" y="   180" width="   200" height="    20" style = "fill:chartreuse; stroke: Black;"/>    66
  <text x="  2302" y="   193">SPACE5-1</text>
  <line x1="  1000" y1="   310" x2="  1100" y2="   310" style = "stroke: Black;"/>
  <line x1="  1600" y1="   310" x2="  1700" y2="   310" style = "stroke: Black;"/>
  <line x1="  1900" y1="   310" x2="  2000" y2="   310" style = "stroke: Black;"/>
  <line x1="  2500" y1="   550" x2="  2600" y2="   550" style = "stroke: Black;"/>
  <line x1="  1650" y1="   670" x2="  1700" y2="   670" style = "stroke: Black;"/>
  <line x1="  2150" y1="   710" x2="  2200" y2="   710" style = "stroke: Black;"/>
  <line x1="  1400" y1="   670" x2="  1450" y2="   670" style = "stroke: Black;"/>
  <line x1="   900" y1="   670" x2="   950" y2="   670" style = "stroke: Black;"/>
  <line x1="  2200" y1="   310" x2="  2300" y2="   310" style = "stroke: Black;"/>
  <line x1="  2200" y1="   310" x2="  2300" y2="   350" style = "stroke: Black;"/>
  <line x1="  2200" y1="   310" x2="  2300" y2="   390" style = "stroke: Black;"/>
  <line x1="  2200" y1="   310" x2="  2300" y2="   430" style = "stroke: Black;"/>
  <line x1="  2200" y1="   310" x2="  2300" y2="   470" style = "stroke: Black;"/>
  <line x1="  2200" y1="   310" x2="  2300" y2="   510" style = "stroke: Black;"/>
  <line x1="  2200" y1="   310" x2="  2300" y2="   550" style = "stroke: Black;"/>
  <line x1="  2800" y1="   550" x2="  2900" y2="   550" style = "stroke: Black;"/>
  <line x1="   700" y1="   270" x2="   800" y2="   270" style = "stroke: Black;"/>
  <line x1="   700" y1="   270" x2="   800" y2="   310" style = "stroke: Black;"/>
  <line x1="  1300" y1="   310" x2="  1400" y2="   310" style = "stroke: Black;"/>
  <line x1="  1900" y1="   670" x2="  1950" y2="   670" style = "stroke: Black;"/>
  <line x1="  1900" y1="   670" x2="  1950" y2="   710" style = "stroke: Black;"/>
  <line x1="  2400" y1="   710" x2="  2450" y2="   710" style = "stroke: Black;"/>
  <line x1="   650" y1="   630" x2="   700" y2="   630" style = "stroke: Black;"/>
  <line x1="   650" y1="   630" x2="   700" y2="   670" style = "stroke: Black;"/>
  <line x1="  1150" y1="   670" x2="  1200" y2="   670" style = "stroke: Black;"/>
  <line x1="  1600" y1="    30" x2="  1700" y2="    30" style = "stroke: Black;"/>
  <line x1="  1600" y1="    30" x2="  1700" y2="    70" style = "stroke: Black;"/>
  <line x1="  1600" y1="    30" x2="  1700" y2="   110" style = "stroke: Black;"/>
  <line x1="  1600" y1="    30" x2="  1700" y2="   150" style = "stroke: Black;"/>
  <line x1="  1600" y1="    30" x2="  1700" y2="   190" style = "stroke: Black;"/>
  <line x1="  1900" y1="    30" x2="  2000" y2="    30" style = "stroke: Black;"/>
  <line x1="  2500" y1="   310" x2="  2600" y2="   550" style = "stroke: Black;"/>
  <line x1="  2200" y1="    30" x2="  2300" y2="    30" style = "stroke: Black;"/>
  <line x1="  2500" y1="   350" x2="  2600" y2="   550" style = "stroke: Black;"/>
  <line x1="  2200" y1="    70" x2="  2300" y2="    70" style = "stroke: Black;"/>
  <line x1="  2500" y1="   390" x2="  2600" y2="   550" style = "stroke: Black;"/>
  <line x1="  2200" y1="   110" x2="  2300" y2="   110" style = "stroke: Black;"/>
  <line x1="  2500" y1="   430" x2="  2600" y2="   550" style = "stroke: Black;"/>
  <line x1="  2200" y1="   150" x2="  2300" y2="   150" style = "stroke: Black;"/>
  <line x1="  2500" y1="   470" x2="  2600" y2="   550" style = "stroke: Black;"/>
  <line x1="  2200" y1="   190" x2="  2300" y2="   190" style = "stroke: Black;"/>
  <line x1="  2500" y1="   510" x2="  2600" y2="   550" style = "stroke: Black;"/>
  <line x1="  1000" y1="    30" x2="  1100" y2="    30" style = "stroke: Black;"/>
  <line x1="  2150" y1="   670" x2="  2200" y2="   710" style = "stroke: Black;"/>
  <line x1="   700" y1="    30" x2="   800" y2="    30" style = "stroke: Black;"/>
  <line x1="  1900" y1="    70" x2="  2000" y2="    70" style = "stroke: Black;"/>
  <line x1="  1900" y1="   110" x2="  2000" y2="   110" style = "stroke: Black;"/>
  <line x1="  1900" y1="   150" x2="  2000" y2="   150" style = "stroke: Black;"/>
  <line x1="  1900" y1="   190" x2="  2000" y2="   190" style = "stroke: Black;"/>
  <line x1="   400" y1="    30" x2="   500" y2="    30" style = "stroke: Black;"/>
  <line x1="  1300" y1="    30" x2="  1400" y2="    30" style = "stroke: Black;"/>
  <line x1="  1000" y1="   270" x2="  1100" y2="   310" style = "stroke: Black;"/>
  <line x1="   900" y1="   630" x2="   950" y2="   670" style = "stroke: Black;"/>
  <line x1="   400" y1="   270" x2="   500" y2="   270" style = "stroke: Black;"/>
  <line x1="   400" y1="   630" x2="   450" y2="   630" style = "stroke: Black;"/>
  <line x1="  2500" y1="    30" x2="  2600" y2="   190" style = "stroke: Black;"/>
  <line x1="  2500" y1="    70" x2="  2600" y2="   190" style = "stroke: Black;"/>
  <line x1="  2500" y1="   110" x2="  2600" y2="   190" style = "stroke: Black;"/>
  <line x1="  2500" y1="   150" x2="  2600" y2="   190" style = "stroke: Black;"/>
  <line x1="  2500" y1="   190" x2="  2600" y2="   190" style = "stroke: Black;"/>
  <line x1="   200" y1="    30" x2="   175" y2="    30" style = "stroke: Black;"/>
  <line x1="   175" y1="    30" x2="   175" y2="     0" style = "stroke: Black;"/>
  <line x1="   175" y1="     0" x2="  2825" y2="     0" style = "stroke: Black;"/>
  <line x1="  2825" y1="     0" x2="  2825" y2="   190" style = "stroke: Black;"/>
  <line x1="  2825" y1="   190" x2="  2800" y2="   190" style = "stroke: Black;"/>
  <line x1="   200" y1="   270" x2="   175" y2="   270" style = "stroke: Black;"/>
  <line x1="   175" y1="   270" x2="   175" y2="   240" style = "stroke: Black;"/>
  <line x1="   175" y1="   240" x2="  3125" y2="   240" style = "stroke: Black;"/>
  <line x1="  3125" y1="   240" x2="  3125" y2="   550" style = "stroke: Black;"/>
  <line x1="  3125" y1="   550" x2="  3100" y2="   550" style = "stroke: Black;"/>
  <line x1="   200" y1="   630" x2="   175" y2="   630" style = "stroke: Black;"/>
  <line x1="   175" y1="   630" x2="   175" y2="   600" style = "stroke: Black;"/>
  <line x1="   175" y1="   600" x2="  2675" y2="   600" style = "stroke: Black;"/>
  <line x1="  2675" y1="   600" x2="  2675" y2="   710" style = "stroke: Black;"/>
  <line x1="  2675" y1="   710" x2="  2650" y2="   710" style = "stroke: Black;"/>
  <text x="   200" y="   840">Unused Non-Parent Objects:</text>
  <text x="   220" y="   860">OutdoorAir:Node</text>
  <text x="   220" y="   880">SUPPLY AIR TEMP MANAGER 1</text>
  <text x="   220" y="   900">HOT WATER LOOP SETPOINT MANAGER</text>
  <text x="   220" y="   920">CENTRAL BOILER SETPOINT MANAGER</text>
  <text x="   220" y="   940">CHILLED WATER LOOP SETPOINT MANAGER</text>
  <text x="   220" y="   960">CENTRAL CHILLER SETPOINT MANAGER</text>
  <text x="   220" y="   980">MIXED AIR TEMP MANAGER 1</text>
  <text x="   220" y="  1000">CENTRAL COOLING COIL CONTOLLER 1</text>
  <text x="   220" y="  1020">CENTRAL HEATING COIL CONTOLLER 1</text>
  <text x="   220" y="  1040">OA CONTROLLER 1</text>
  <text x="   200" y="  1080">
The following are not supported: objects related to controls, AirTerminal:SingleDuct:Uncontrolled, or ZoneHVAC:IdealLoadsAirSystem</text>
</g>
</svg>
